<?xml version="1.0" encoding="UTF-8"?>
<svg id="Capa_2" xmlns="http://www.w3.org/2000/svg" viewBox="0 0 1356.3 938.02">
    <defs>
        <style>
            .cls-1{font-size:13.69px;}.cls-1,.cls-2,.cls-3{fill:#fff;font-family:MyriadPro-Regular,
            'Myriad
            Pro';}.cls-4{fill:#a81366;stroke:#a81366;}.cls-4,.cls-5,.cls-6,.cls-7{stroke-miterlimit:10;}
            .cls-2{font-size:13.69px;}.cls-5{fill:#015d82;stroke:#015d82;}
            .cls-6{opacity:.37;stroke:#000;stroke-width:4px;}
            .cls-8{letter-spacing:0em;}.cls-9{letter-spacing:-.02em;}
            .cls-3{font-size:18.18px;}
            .cls-7{fill:#8e2013;stroke:#8e2013;}</style>
    </defs>
    <g>
        <path id="bg" name="room 9" class="cls-6" 
            d="M638.36,910.71m34.99,14.48c16.48-8.65,12.78,10.3,12.78,10.3,35.85,6.18,34.62-43.69,34.62-43.69,28.02-19.37,17.47-43.31,17.47-43.31-2.07-11.97,1.24-16.32,13.32-16.79,2.26-.09,4.54,0,6.8-.03,10.84-.16,14.16-3.73,14.31-14.35,.22-15.7-2-31.54,6.24-46.51,3.1-5.63,2.47-13.31,3.54-20.06,5.9,.51,11.94,.38,17.66,1.68,8.2,1.87,14.81,1.13,17.76-7.78,2.39-7.24,4.13-14.7,6.16-22.07,6.09-2.6,12.28-5,18.26-7.84,6.85-3.25,13.51-6.9,20.25-10.37,1.12,1,2.24,2,3.35,3-3.72,11.73-7.83,23.35-11.04,35.21-3.07,11.36-5.38,22.94-7.66,34.49-1.13,5.75,2.82,7.73,6.73,4.83,4.37-3.24,7.27-8.44,11.86-14.07,.68,.21,3.9,1.22,5.85,1.83,.88,12.35,1.38,23.21,2.72,33.97,.2,1.58,5.29,4.35,6.45,3.68,3.38-1.96,8.29-5.31,8.37-8.24,.36-13.1,1.87-18.31,9.78-27.29,.19-.22,7.51-4.43,6.12-4.7l-.4,.31c1.91-.03,3.83-.09,5.74-.09,12.43-.02,12.77,.44,12.05,13.09-.26,4.57-.04,9.17-.04,15.85,4.6-2.69,7.15-4.18,9.7-5.66,4.51-7.41,9.02-14.83,13.53-22.24,3.72-.94,7.56-3.03,11.13-2.62,14.05,1.6,20.26-4.51,23.71-16.66l.12-1.05c9.15-3.97,18.3-7.93,27.45-11.9l-.32,.17c12.41-8.42,24.88-16.77,37.16-25.39,1.25-.88,1.39-3.33,2.05-5.05l7.6-6.07c20.5-11.94,33.01-30.61,43.14-51.28,2.21-1.46,4.43-2.92,6.64-4.37,4.92-4.91,9.84-9.82,14.76-14.74,8.51-2.37,14.01-5.84,19.21-15.11,13.98-24.95,.47-45.68-21.16-57.4-3.14-1.87-7.19-3.05-9.24-5.75-3.69-4.85-13.64-6.32-9.39-15.86,1.96-1.24,3.92-2.49,5.88-3.73,6.29-4.69,3.03-10,.35-14.57-10.04-17.16-33.77-12.65-43.37-1.52-3.78,4.39-6.92,5-11.24,4.61-4.12-.38-8.17-1.62-10.74-2.16-2.45-3.8-3.86-6.18-5.59-8.86h0c-2.78-25.55-13.29-47.72-28.44-67.42,2.02-2.91,4.35-6.27,7.14-10.29-9.33-3.67-11.55-9.22-10.59-17.51,.99-8.63,.84-17.54,0-26.21-3.48-35.65-7.35-71.27-11.24-106.88-.66-6.05,.88-10.11,6.21-13.76,10.58-7.25,20.55-15.39,30.77-23.16l-.3,.32c.63-4.54,2.21-9.19,1.72-13.61-1.57-13.97-3.57-27.92-6.19-41.73-.69-3.66-3.58-7.54-6.55-10.01-11.45-9.53-25.84-10.57-39.81-12.2-2.33-.27-5.02,2.56-7.55,3.96-.4,.46-.83,.88-1.3,1.26-1.28,4.32-3.3,8.56-3.72,12.96-1.93,20.52-9.22,35.14-32.01,40.4-16.44,3.8-31.58,12.86-49.45,11.13-4.63-.45-9.82,.33-14.14,2.07-9.76,3.93-21.73,5-25.9,17.39l.37-.34c-11,9.52-14.61,31.77-6.94,46.6,2.8,5.4,7.14,10.01,10.77,14.98,6.82,4.18,10.25,10.51,11.52,18.21,3.12,1.84,6.25,3.68,10.3,6.07-1.3,9.61-2.57,19.79-4.1,29.93-.51,3.4-.58,8.24-2.74,9.77-5.81,4.14-4.1,9.16-4.19,14.59-.3,17.76,5.13,36.05-4.31,53.07-.22,.29-.42,.59-.6,.9-3.13,2.25-7.25,3.86-9.21,6.88-5.3,8.2-13.15,10.85-21.98,12.13-4.4,.64-8.82,1.17-14.51,1.93,.99,4.71,.77,9.66,3,12.97,3.73,5.56,6.17,10.42,1.66,16.45-5.07,3.75-10.35,7.23-15.13,11.32-4.62,3.94-8.71,8.5-13.03,12.79-4.36,4.24-9.12,8.16-12.97,12.83-3.68,4.47-6.41,9.71-9.56,14.62l.33-.3c-1.12,1.01-2.58,1.81-3.32,3.05-10.81,17.98-14.97,37.87-16.79,58.47-1.65,18.69-3.6,37.35-5.41,56.02l-5.05,5.1c-6.7,1.71-13.61,2.86-20.01,5.32-4.81,1.85-8.3,3.25-9.05-3.2-4.89,1.42-9.14,3.53-13.47,3.76-29.6,1.52-59.22,2.63-88.83,3.88-3.39-1.9-6.78-3.8-10.16-5.69-6.52-1.25-13.04-2.47-19.56-3.75-8.58-1.69-14.35,1.73-17.69,9.64-.25,.25-.5,.5-.75,.76-19.15,5-38.45,5.04-57.41-.15-18.98-5.2-35.65,.32-51.95,8.94-1.46,.77-2.94,2.99-3.03,4.61-.56,10.32-7.79,13.06-16.07,15.11-5.32,1.31-10.39,3.79-15.75,4.74-6.63,1.18-8.88,4.7-9.48,11.12-.69,7.33-3.02,13.59-12.82,13.69-2.98,.03-6.63,4.2-8.69,7.32-3.2,4.84-5.3,10.4-7.87,15.65l.38-.32c-11.68,.52-17.81,9.63-25.08,16.73-.86,.84,1.01,4.46,1.61,6.79,.91,1.26,1.81,2.52,2.72,3.78,.96,3.73,1.25,7.83,3.03,11.11,2.19,4.05,4.91,9.35,8.65,10.73,12.85,4.75,26.19,8.23,39.45,11.78,10.52,2.82,22.54-.73,31.81,7.47l-.34-.37c1.85,5.77,3.53,11.61,5.62,17.3,1.17,3.19,2.31,7.92,4.69,8.86,9.4,3.73,19.28,6.23,28.98,9.19l-.4-.29c3.03,2.65,5.63,6.52,9.15,7.75,19.27,6.75,37.56,15.64,58.54,18.25,28.85,3.59,58.72,6.25,83.07,25.82,5.81-13.91,22.16-9.39,27.52-7.78,16.81,26.28,26.05,12.87,26.05,12.87Zm29.44-151.31" />
        ; <path id="119" name="Cunoc" class="cls-5" color="015d82"
            d="M955.22,574.99c-1.72-3.7-3.44-7.4-5.01-10.81,3.94-3.63,7.37-7.52,11.51-10.41,3.75-2.62,8.21-4.23,12.44-6.12,1.99-.89,4.42-.99,6.21-2.13,6.61-4.23,12.79-9.19,19.62-13.01,5.38-3.01,11.29-5.81,17.29-6.8,10.68-1.76,21.08-5.88,32.44-3.72,3.04,.58,6.99-2.69,10.28-4.6,3.98-2.31,7.71-5.05,13.74-9.06,0,10.39-.36,18.02,.11,25.59,.39,6.28,.94,12.77,2.9,18.67,3.02,9.07,1.04,15.59-7.58,19.76-16.65,8.04-25.18,22.11-21.36,39.59,4.6,21.04-3.15,37.78-15.1,53.67-3.49,4.65-7.91,8.63-11.2,13.4-5.56,8.05-11.29,7.36-18.58,2.26-5.84-4.09-12.52-6.96-20.7-11.37,0-11.48-.82-25.96,.19-40.31,1.61-22.97-10.91-38.95-24.83-54.52-.47-.53-1.8-.3-2.73-.42l.35,.35Z" />
        ; <path id="120" name="Conce" class="cls-7" color="8e2013"
            d="M957.14,574.64c3.29,4.63,6.18,9.62,9.96,13.8,8.81,9.75,13.88,21.04,14.21,34.05,.42,16.9,.1,33.81,.1,50.41-10.32,1.78-13.95-1.68-14.51-9.94-.9-13.2-5.81-25.25-9.82-37.78-6.37-19.87-22.45-31.03-33.05-46.8-1.88-2.79-6.39-4.13-9.95-5.42-9.56-3.49-19.26-6.59-28.9-9.86-.9-.3-2.19-.5-2.56-1.16-10.08-17.83-30.06-24.93-42.89-39.75-1.63-1.89-3.17-3.86-6.36-7.75,7.75,1.26,13.34,1.83,18.75,3.12,13.37,3.18,27.18,5.4,39.81,10.5,9.1,3.68,17.11,10.76,24.64,17.42,8.93,7.9,16.71,16.55,29.52,18.94,4.3,.8,7.62,6.88,11.4,10.55,0,0-.35-.34-.35-.34Z" />
        ; <path id="121" name="Cantel" class="cls-4" color="a81366"
            d="M1122.5,556.92c6.54,6.85,12.09,7.51,17.32,17.32,4.35,8.15,7.63,15.68,6.21,25.16-1.65,10.98-7.81,28.18-24.91,31.33-2.46,3.31-4.71,4.67-7.17,7.98-1.34-.1-2.68-.21-4.02-.31-2.69-5.2-5.74-10.25-7.99-15.63-3.54-8.45-5.73-17.54-9.94-25.61-7.11-13.61,3.57-40.71,17.78-44.19,3.38-.83,8.82,2.66,12.72,3.95Z" />
        ; </g>
</svg>